<svg width="70" height="70" viewBox="0 0 70 70" fill="none" xmlns="http://www.w3.org/2000/svg">
<g clip-path="url(#clip0)">
<path fill-rule="evenodd" clip-rule="evenodd" d="M0.42 0C0.188041 0 0 0.18804 0 0.42V6.87339V63.1266V69.58C0 69.812 0.188041 70 0.42 70H10.3521L22.0846 70C22.3166 70 22.5046 69.8119 22.5046 69.58V63.5466C22.5046 63.3146 22.3166 63.1266 22.0846 63.1266H10.7721C10.5402 63.1266 10.3521 62.9385 10.3521 62.7066V7.29338C10.3521 7.06142 10.5402 6.87339 10.7721 6.87339H22.0846C22.3166 6.87339 22.5046 6.68535 22.5046 6.45339V0.42C22.5046 0.188041 22.3166 0 22.0846 0H10.3521H0.42ZM42.2443 0.42V6.45339C42.2443 6.68534 42.4324 6.87339 42.6643 6.87339H43.3726C45.9677 6.87339 50.9321 7.32558 51.4962 11.7571V25.323C51.4586 26.4686 51.7896 29.3023 53.4143 31.4729C53.9089 32.16 55.236 33.6303 56.9546 34.6163C57.2548 34.7885 57.2708 35.2408 56.9742 35.4193C55.5374 36.2839 53.5793 37.6691 53.4241 38.5942C53.4117 38.6682 53.3942 38.7415 53.3575 38.8069C52.7023 39.9763 51.4962 43.0733 51.4962 46.938V58.1525C51.5338 59.7502 50.0069 62.9819 43.5983 63.1266H42.6643C42.4324 63.1266 42.2443 63.3147 42.2443 63.5466V69.58C42.2443 69.812 42.4324 70 42.6643 70H44.5009C45.8548 69.9699 49.1494 69.783 51.4962 69.2765C53.9785 68.764 59.2814 66.8165 60.6353 63.1266C60.9738 62.4634 61.6959 60.5401 61.8764 58.1525V44.0871C61.8764 44.0584 61.8791 44.0308 61.8852 44.0027C62.1646 42.7252 63.3825 40.0108 66.1194 38.9956C66.1404 38.9878 66.1607 38.9783 66.1809 38.9687C66.189 38.9649 66.197 38.9611 66.2051 38.9575C66.46 38.8414 67.4087 38.6631 69.5677 38.6984C69.8042 38.7023 70 38.5127 70 38.2762V31.9071C70 31.6697 69.8039 31.4795 69.5664 31.4812C68.5569 31.4883 66.9416 31.4228 66.1639 31.1111C65.0404 30.8109 62.6194 29.369 61.8858 25.9997C61.8795 25.9711 61.8764 25.9413 61.8764 25.912V11.7571C61.8027 10.5455 61.4398 7.92007 60.5752 6.93102C60.541 6.89183 60.5131 6.85033 60.4924 6.80258C59.6963 4.96827 56.8423 1.29488 51.4962 0.723514C50.5184 0.542636 48.0437 0.144703 45.9677 0H42.6643C42.4324 0 42.2443 0.18804 42.2443 0.42Z" fill="#FF5200"/>
<path d="M10.3521 70V70.35H10.3521L10.3521 70ZM22.0846 70V69.65H22.0846L22.0846 70ZM51.4962 11.7571H51.8462V11.7349L51.8434 11.7129L51.4962 11.7571ZM51.4962 25.323L51.8462 25.3345V25.323H51.4962ZM53.4143 31.4729L53.6984 31.2684L53.6945 31.2631L53.4143 31.4729ZM56.9546 34.6163L57.1287 34.3127V34.3127L56.9546 34.6163ZM56.9742 35.4193L57.1547 35.7192L56.9742 35.4193ZM53.4241 38.5942L53.7693 38.6521V38.6521L53.4241 38.5942ZM53.3575 38.8069L53.6629 38.978L53.3575 38.8069ZM51.4962 58.1525H51.1461L51.1463 58.1607L51.4962 58.1525ZM43.5983 63.1266V63.4767L43.6062 63.4765L43.5983 63.1266ZM44.5009 70V70.3501L44.5087 70.3499L44.5009 70ZM51.4962 69.2765L51.4255 68.9337L51.4224 68.9344L51.4962 69.2765ZM60.6353 63.1266L60.3235 62.9675L60.314 62.9863L60.3067 63.0061L60.6353 63.1266ZM61.8764 58.1525L62.2254 58.1788L62.2264 58.1657V58.1525H61.8764ZM61.8852 44.0027L62.2271 44.0776L62.2271 44.0775L61.8852 44.0027ZM66.1194 38.9956L65.9977 38.6675L65.9977 38.6675L66.1194 38.9956ZM66.1809 38.9687L66.0316 38.6522L66.1809 38.9687ZM66.2051 38.9575L66.3501 39.276L66.3501 39.276L66.2051 38.9575ZM69.5677 38.6984L69.562 39.0484H69.562L69.5677 38.6984ZM69.5664 31.4812L69.564 31.1312L69.5664 31.4812ZM66.1639 31.1111L66.2941 30.7862L66.2745 30.7784L66.2542 30.773L66.1639 31.1111ZM61.8858 25.9997L62.2278 25.9252L62.2278 25.9252L61.8858 25.9997ZM61.8764 11.7571H62.2264V11.7465L62.2258 11.7358L61.8764 11.7571ZM60.5752 6.93102L60.3117 7.16137V7.16137L60.5752 6.93102ZM60.4924 6.80258L60.1713 6.94192L60.1713 6.94194L60.4924 6.80258ZM51.4962 0.723514L51.4326 1.06768L51.4457 1.07011L51.459 1.07153L51.4962 0.723514ZM45.9677 0L45.992 -0.349153L45.9799 -0.35H45.9677V0ZM0.35 0.42C0.35 0.38134 0.38134 0.35 0.42 0.35V-0.35C-0.00525887 -0.35 -0.35 -0.00525943 -0.35 0.42H0.35ZM0.35 6.87339V0.42H-0.35V6.87339H0.35ZM0.35 63.1266V6.87339H-0.35V63.1266H0.35ZM0.35 69.58V63.1266H-0.35V69.58H0.35ZM0.42 69.65C0.38134 69.65 0.35 69.6187 0.35 69.58H-0.35C-0.35 70.0053 -0.00525855 70.35 0.42 70.35V69.65ZM10.3521 69.65H0.42V70.35H10.3521V69.65ZM22.0846 69.65L10.3521 69.65L10.3521 70.35L22.0846 70.35L22.0846 69.65ZM22.1546 69.58C22.1546 69.6186 22.1233 69.65 22.0846 69.65V70.35C22.5099 70.35 22.8546 70.0052 22.8546 69.58H22.1546ZM22.1546 63.5466V69.58H22.8546V63.5466H22.1546ZM22.0846 63.4766C22.1233 63.4766 22.1546 63.5079 22.1546 63.5466H22.8546C22.8546 63.1213 22.5098 62.7766 22.0846 62.7766V63.4766ZM10.7721 63.4766H22.0846V62.7766H10.7721V63.4766ZM10.0021 62.7066C10.0021 63.1318 10.3469 63.4766 10.7721 63.4766V62.7766C10.7335 62.7766 10.7021 62.7452 10.7021 62.7066H10.0021ZM10.0021 7.29338V62.7066H10.7021V7.29338H10.0021ZM10.7721 6.52339C10.3469 6.52339 10.0021 6.86812 10.0021 7.29338H10.7021C10.7021 7.25473 10.7334 7.22339 10.7721 7.22339V6.52339ZM22.0846 6.52339H10.7721V7.22339H22.0846V6.52339ZM22.1546 6.45339C22.1546 6.49204 22.1233 6.52339 22.0846 6.52339V7.22339C22.5098 7.22339 22.8546 6.87865 22.8546 6.45339H22.1546ZM22.1546 0.42V6.45339H22.8546V0.42H22.1546ZM22.0846 0.35C22.1233 0.35 22.1546 0.38134 22.1546 0.42H22.8546C22.8546 -0.00525822 22.5099 -0.35 22.0846 -0.35V0.35ZM10.3521 0.35H22.0846V-0.35H10.3521V0.35ZM0.42 0.35H10.3521V-0.35H0.42V0.35ZM42.5943 6.45339V0.42H41.8943V6.45339H42.5943ZM42.6643 6.52339C42.6257 6.52339 42.5943 6.49205 42.5943 6.45339H41.8943C41.8943 6.87864 42.2391 7.22339 42.6643 7.22339V6.52339ZM43.3726 6.52339H42.6643V7.22339H43.3726V6.52339ZM51.8434 11.7129C51.5412 9.33845 50.0461 8.02973 48.3282 7.32932C46.6274 6.63595 44.6818 6.52339 43.3726 6.52339V7.22339C44.6585 7.22339 46.4926 7.33692 48.0639 7.97752C49.6179 8.61109 50.8872 9.74424 51.149 11.8013L51.8434 11.7129ZM51.8462 25.323V11.7571H51.1462V25.323H51.8462ZM53.6945 31.2631C52.1336 29.1778 51.81 26.4325 51.846 25.3345L51.1464 25.3115C51.1073 26.5047 51.4456 29.4268 53.1341 31.6826L53.6945 31.2631ZM57.1287 34.3127C55.4631 33.3571 54.1711 31.9252 53.6984 31.2684L53.1302 31.6773C53.6467 32.3948 55.0088 33.9035 56.7804 34.9198L57.1287 34.3127ZM57.1547 35.7192C57.6942 35.3945 57.6462 34.6095 57.1287 34.3127L56.7804 34.9198C56.8129 34.9385 56.8369 34.9758 56.8383 35.0254C56.8397 35.0737 56.8194 35.104 56.7938 35.1194L57.1547 35.7192ZM53.7693 38.6521C53.7926 38.5134 53.8959 38.3119 54.1111 38.0535C54.32 37.8028 54.6064 37.5313 54.9417 37.2537C55.6117 36.699 56.4442 36.1467 57.1547 35.7192L56.7938 35.1194C56.0674 35.5565 55.2025 36.1291 54.4953 36.7145C54.1422 37.0068 53.8202 37.3091 53.5733 37.6054C53.3329 37.8939 53.1333 38.2125 53.079 38.5364L53.7693 38.6521ZM53.6629 38.978C53.7295 38.8592 53.755 38.7378 53.7693 38.6521L53.079 38.5363C53.0685 38.5985 53.0589 38.6239 53.0522 38.6359L53.6629 38.978ZM51.8462 46.938C51.8462 43.1385 53.0342 40.1 53.6629 38.978L53.0522 38.6359C52.3704 39.8526 51.1462 43.008 51.1462 46.938H51.8462ZM51.8462 58.1525V46.938H51.1462V58.1525H51.8462ZM43.6062 63.4765C46.8672 63.4029 48.9381 62.5423 50.1944 61.4484C51.4484 60.3566 51.8675 59.0506 51.8461 58.1442L51.1463 58.1607C51.1626 58.8521 50.837 59.9608 49.7348 60.9205C48.6349 61.8781 46.738 62.7056 43.5904 62.7767L43.6062 63.4765ZM42.6643 63.4766H43.5983V62.7766H42.6643V63.4766ZM42.5943 63.5466C42.5943 63.508 42.6257 63.4766 42.6643 63.4766V62.7766C42.2391 62.7766 41.8943 63.1214 41.8943 63.5466H42.5943ZM42.5943 69.58V63.5466H41.8943V69.58H42.5943ZM42.6643 69.65C42.6257 69.65 42.5943 69.6187 42.5943 69.58H41.8943C41.8943 70.0053 42.2391 70.35 42.6643 70.35V69.65ZM44.5009 69.65H42.6643V70.35H44.5009V69.65ZM51.4224 68.9344C49.1086 69.4337 45.8406 69.6201 44.4931 69.6501L44.5087 70.3499C45.8691 70.3196 49.1902 70.1322 51.5701 69.6186L51.4224 68.9344ZM60.3067 63.0061C59.6722 64.7353 58.0946 66.0915 56.3177 67.0878C54.5484 68.0798 52.637 68.6836 51.4255 68.9337L51.567 69.6193C52.8377 69.3569 54.8188 68.7307 56.66 67.6984C58.4936 66.6703 60.2444 65.2079 60.9639 63.2472L60.3067 63.0061ZM61.5274 58.1261C61.3505 60.4657 60.6417 62.3441 60.3235 62.9675L60.947 63.2857C61.3058 62.5827 62.0413 60.6144 62.2254 58.1788L61.5274 58.1261ZM61.5264 44.0871V58.1525H62.2264V44.0871H61.5264ZM61.5433 43.9279C61.5312 43.9832 61.5264 44.0361 61.5264 44.0871H62.2264C62.2264 44.0836 62.2266 44.0814 62.2267 44.0802C62.2268 44.0791 62.2269 44.0783 62.2271 44.0776L61.5433 43.9279ZM65.9977 38.6675C63.1036 39.7409 61.8357 42.591 61.5433 43.928L62.2271 44.0775C62.4935 42.8594 63.6615 40.2806 66.2411 39.3238L65.9977 38.6675ZM66.0316 38.6522C66.0091 38.6628 66.0023 38.6658 65.9977 38.6675L66.2411 39.3238C66.2785 39.3099 66.3122 39.2938 66.3302 39.2853L66.0316 38.6522ZM66.0601 38.6389C66.0495 38.6437 66.0393 38.6485 66.0316 38.6522L66.3302 39.2853C66.3386 39.2813 66.3445 39.2785 66.3501 39.276L66.0601 38.6389ZM69.5734 38.3485C68.4843 38.3307 67.6931 38.3665 67.137 38.423C66.5949 38.478 66.2439 38.5552 66.0601 38.6389L66.3501 39.276C66.4212 39.2436 66.672 39.1737 67.2077 39.1194C67.7294 39.0665 68.4921 39.0309 69.562 39.0484L69.5734 38.3485ZM69.65 38.2762C69.65 38.3139 69.6177 38.3492 69.5734 38.3485L69.562 39.0484C69.9906 39.0554 70.35 38.7116 70.35 38.2762H69.65ZM69.65 31.9071V38.2762H70.35V31.9071H69.65ZM69.5689 31.8312C69.617 31.8309 69.65 31.8688 69.65 31.9071H70.35C70.35 31.4705 69.9907 31.1282 69.564 31.1312L69.5689 31.8312ZM66.0337 31.436C66.4742 31.6126 67.1174 31.7097 67.7479 31.7644C68.3891 31.8201 69.0567 31.8348 69.5689 31.8312L69.564 31.1312C69.0666 31.1347 68.4218 31.1203 67.8085 31.067C67.1846 31.0129 66.6312 30.9214 66.2941 30.7862L66.0337 31.436ZM61.5438 26.0742C62.3092 29.5894 64.8421 31.1202 66.0735 31.4493L66.2542 30.773C65.2388 30.5017 62.9296 29.1487 62.2278 25.9252L61.5438 26.0742ZM61.5264 25.912C61.5264 25.9659 61.5321 26.0206 61.5438 26.0742L62.2278 25.9252C62.227 25.9215 62.2264 25.9167 62.2264 25.912H61.5264ZM61.5264 11.7571V25.912H62.2264V11.7571H61.5264ZM60.3117 7.16137C60.6803 7.583 60.9731 8.407 61.1808 9.33687C61.3841 10.2471 61.4911 11.1876 61.5271 11.7784L62.2258 11.7358C62.188 11.1149 62.0767 10.1369 61.864 9.18431C61.6556 8.25131 61.3347 7.26809 60.8387 6.70067L60.3117 7.16137ZM60.1713 6.94194C60.2088 7.02836 60.258 7.09997 60.3117 7.16137L60.8387 6.70067C60.8239 6.68369 60.8174 6.67229 60.8134 6.66322L60.1713 6.94194ZM51.459 1.07153C56.6518 1.62651 59.4131 5.19484 60.1713 6.94192L60.8134 6.66323C59.9795 4.7417 57.0327 0.963238 51.5334 0.375496L51.459 1.07153ZM45.9433 0.349153C48.0008 0.492563 50.4611 0.887974 51.4326 1.06768L51.5599 0.379353C50.5757 0.197297 48.0866 -0.203157 45.992 -0.349153L45.9433 0.349153ZM42.6643 0.35H45.9677V-0.35H42.6643V0.35ZM42.5943 0.42C42.5943 0.381342 42.6257 0.35 42.6643 0.35V-0.35C42.2391 -0.35 41.8943 -0.00526097 41.8943 0.42H42.5943Z" fill="#5F3899"/>
</g>
<defs>
<clipPath id="clip0">
<path d="M0 0.419999C0 0.188039 0.18804 0 0.42 0H69.58C69.812 0 70 0.18804 70 0.42V69.58C70 69.812 69.812 70 69.58 70H0.419999C0.188039 70 0 69.812 0 69.58V0.419999Z" fill="white"/>
</clipPath>
</defs>
</svg>
