<svg width="40" height="40" viewBox="0 0 40 40" fill="none" xmlns="http://www.w3.org/2000/svg">
<path d="M35.9328 4.16016C35.8186 4.03472 35.6802 3.93373 35.5259 3.86329C35.3716 3.79286 35.2047 3.75443 35.0351 3.75034C34.8656 3.74625 34.6969 3.77658 34.5394 3.8395C34.3819 3.90242 34.2388 3.99662 34.1187 4.11641L33.1523 5.07813C33.0352 5.19532 32.9694 5.35423 32.9694 5.51992C32.9694 5.68561 33.0352 5.84452 33.1523 5.96172L34.0383 6.8461C34.0963 6.90444 34.1654 6.95074 34.2414 6.98233C34.3174 7.01392 34.3989 7.03018 34.4812 7.03018C34.5635 7.03018 34.6451 7.01392 34.7211 6.98233C34.7971 6.95074 34.8661 6.90444 34.9242 6.8461L35.8664 5.90859C36.3429 5.43281 36.3875 4.65781 35.9328 4.16016ZM31.1984 7.03125L17.0953 21.1094C17.0098 21.1945 16.9476 21.3003 16.9148 21.4164L16.2625 23.3594C16.2468 23.4121 16.2457 23.4681 16.2593 23.5214C16.2728 23.5747 16.3005 23.6233 16.3393 23.6622C16.3782 23.7011 16.4269 23.7287 16.4802 23.7423C16.5335 23.7558 16.5894 23.7547 16.6422 23.7391L18.5836 23.0867C18.6997 23.0539 18.8054 22.9918 18.8906 22.9063L32.9687 8.80157C33.099 8.66993 33.172 8.49222 33.172 8.30703C33.172 8.12185 33.099 7.94414 32.9687 7.8125L32.1914 7.03125C32.0596 6.89982 31.881 6.82601 31.6949 6.82601C31.5088 6.82601 31.3302 6.89982 31.1984 7.03125V7.03125Z" fill="#5A16E9"/>
<path d="M30.1828 15.1297L20.6602 24.6711C20.2921 25.04 19.8398 25.3138 19.3422 25.4688L17.3187 26.1461C16.8385 26.2817 16.3309 26.2868 15.848 26.1609C15.3652 26.035 14.9246 25.7826 14.5718 25.4298C14.2189 25.0769 13.9666 24.6364 13.8407 24.1536C13.7147 23.6707 13.7199 23.163 13.8555 22.6828L14.5328 20.6594C14.6873 20.162 14.9605 19.7096 15.3289 19.3414L24.8703 9.81719C24.9578 9.72983 25.0174 9.61849 25.0415 9.49726C25.0657 9.37603 25.0534 9.25035 25.0062 9.13612C24.9589 9.02188 24.8789 8.92423 24.7761 8.8555C24.6733 8.78677 24.5525 8.75006 24.4289 8.75H8.125C6.96468 8.75 5.85188 9.21094 5.03141 10.0314C4.21094 10.8519 3.75 11.9647 3.75 13.125V31.875C3.75 33.0353 4.21094 34.1481 5.03141 34.9686C5.85188 35.7891 6.96468 36.25 8.125 36.25H26.875C28.0353 36.25 29.1481 35.7891 29.9686 34.9686C30.7891 34.1481 31.25 33.0353 31.25 31.875V15.5711C31.2499 15.4475 31.2132 15.3267 31.1445 15.2239C31.0758 15.1211 30.9781 15.0411 30.8639 14.9938C30.7497 14.9466 30.624 14.9343 30.5027 14.9585C30.3815 14.9826 30.2702 15.0422 30.1828 15.1297Z" fill="#5A16E9"/>
</svg>
