<svg width="40" height="40" viewBox="0 0 40 40" fill="none" xmlns="http://www.w3.org/2000/svg">
<path d="M21.25 3.25702V14.6875C21.25 14.7704 21.2829 14.8499 21.3415 14.9085C21.4001 14.9671 21.4796 15 21.5625 15H32.993C33.0239 15 33.054 14.9909 33.0797 14.9738C33.1054 14.9567 33.1255 14.9323 33.1373 14.9038C33.1492 14.8753 33.1524 14.8439 33.1464 14.8136C33.1405 14.7833 33.1257 14.7555 33.1039 14.7336L21.5164 3.14608C21.4945 3.12432 21.4667 3.10953 21.4364 3.10358C21.4061 3.09763 21.3747 3.10078 21.3462 3.11265C21.3177 3.12452 21.2933 3.14457 21.2762 3.17026C21.2591 3.19596 21.25 3.22615 21.25 3.25702Z" fill="#FBFBFB"/>
<path d="M19.375 17.5C19.2092 17.5 19.0503 17.4342 18.9331 17.3169C18.8158 17.1997 18.75 17.0408 18.75 16.875V2.5H7.1875C6.93886 2.5 6.7004 2.59877 6.52459 2.77459C6.34877 2.9504 6.25 3.18886 6.25 3.4375V36.5625C6.25 36.8111 6.34877 37.0496 6.52459 37.2254C6.7004 37.4012 6.93886 37.5 7.1875 37.5H32.8125C33.0611 37.5 33.2996 37.4012 33.4754 37.2254C33.6512 37.0496 33.75 36.8111 33.75 36.5625V17.5H19.375ZM27.5 30H12.5V27.5H27.5V30ZM27.5 23.75H12.5V21.25H27.5V23.75Z" fill="#FBFBFB"/>
</svg>
