<svg width="40" height="40" viewBox="0 0 40 40" fill="none" xmlns="http://www.w3.org/2000/svg">
<path d="M37.5001 38.75H3.75006C3.08702 38.75 2.45114 38.4866 1.98229 38.0178C1.51345 37.5489 1.25006 36.913 1.25006 36.25V2.5C1.25006 2.16848 1.38176 1.85054 1.61618 1.61612C1.8506 1.3817 2.16854 1.25 2.50006 1.25C2.83158 1.25 3.14952 1.3817 3.38394 1.61612C3.61837 1.85054 3.75006 2.16848 3.75006 2.5V36.25H37.5001C37.8316 36.25 38.1495 36.3817 38.3839 36.6161C38.6184 36.8505 38.7501 37.1685 38.7501 37.5C38.7501 37.8315 38.6184 38.1495 38.3839 38.3839C38.1495 38.6183 37.8316 38.75 37.5001 38.75Z" fill="#FBFBFB"/>
<path d="M12.1876 33.75H9.06256C8.31664 33.75 7.60127 33.4537 7.07382 32.9262C6.54638 32.3988 6.25006 31.6834 6.25006 30.9375V19.0625C6.25006 18.3166 6.54638 17.6012 7.07382 17.0738C7.60127 16.5463 8.31664 16.25 9.06256 16.25H12.1876C12.9335 16.25 13.6489 16.5463 14.1763 17.0738C14.7037 17.6012 15.0001 18.3166 15.0001 19.0625V30.9375C15.0001 31.6834 14.7037 32.3988 14.1763 32.9262C13.6489 33.4537 12.9335 33.75 12.1876 33.75ZM23.4376 33.75H20.3126C19.5666 33.75 18.8513 33.4537 18.3238 32.9262C17.7964 32.3988 17.5001 31.6834 17.5001 30.9375V15.3125C17.5001 14.5666 17.7964 13.8512 18.3238 13.3238C18.8513 12.7963 19.5666 12.5 20.3126 12.5H23.4376C24.1835 12.5 24.8989 12.7963 25.4263 13.3238C25.9537 13.8512 26.2501 14.5666 26.2501 15.3125V30.9375C26.2501 31.6834 25.9537 32.3988 25.4263 32.9262C24.8989 33.4537 24.1835 33.75 23.4376 33.75V33.75ZM34.6594 33.75H31.5344C30.7885 33.75 30.0731 33.4537 29.5457 32.9262C29.0182 32.3988 28.7219 31.6834 28.7219 30.9375V10.3125C28.7219 9.56658 29.0182 8.85121 29.5457 8.32376C30.0731 7.79632 30.7885 7.5 31.5344 7.5H34.6594C35.4054 7.5 36.1207 7.79632 36.6482 8.32376C37.1756 8.85121 37.4719 9.56658 37.4719 10.3125V30.9375C37.4719 31.6834 37.1756 32.3988 36.6482 32.9262C36.1207 33.4537 35.4054 33.75 34.6594 33.75Z" fill="#FBFBFB"/>
</svg>
