<svg width="40" height="40" viewBox="0 0 40 40" fill="none" xmlns="http://www.w3.org/2000/svg">
<path d="M36.4016 9.35625L30.6437 3.59844C30.2964 3.2491 29.8832 2.97214 29.428 2.78359C28.9729 2.59504 28.4848 2.49865 27.9922 2.5H7.5C6.17392 2.5 4.90215 3.02678 3.96447 3.96447C3.02678 4.90215 2.5 6.17392 2.5 7.5V32.5C2.5 33.8261 3.02678 35.0979 3.96447 36.0355C4.90215 36.9732 6.17392 37.5 7.5 37.5H32.5C33.8261 37.5 35.0979 36.9732 36.0355 36.0355C36.9732 35.0979 37.5 33.8261 37.5 32.5V12.0078C37.5013 11.5152 37.405 11.0271 37.2164 10.572C37.0279 10.1169 36.7509 9.70363 36.4016 9.35625V9.35625ZM9.375 8.75H23.125C23.2908 8.75 23.4497 8.81585 23.5669 8.93306C23.6842 9.05027 23.75 9.20924 23.75 9.375V13.125C23.75 13.2908 23.6842 13.4497 23.5669 13.5669C23.4497 13.6842 23.2908 13.75 23.125 13.75H9.375C9.20924 13.75 9.05027 13.6842 8.93306 13.5669C8.81585 13.4497 8.75 13.2908 8.75 13.125V9.375C8.75 9.20924 8.81585 9.05027 8.93306 8.93306C9.05027 8.81585 9.20924 8.75 9.375 8.75V8.75ZM20.293 33.743C19.0332 33.8021 17.7851 33.4788 16.7125 32.8155C15.6399 32.1522 14.7931 31.1799 14.2833 30.0264C13.7735 28.8729 13.6246 27.5922 13.8561 26.3525C14.0876 25.1128 14.6887 23.9722 15.5804 23.0804C16.4722 22.1887 17.6128 21.5876 18.8525 21.3561C20.0922 21.1246 21.3729 21.2735 22.5264 21.7833C23.6799 22.2931 24.6522 23.1399 25.3155 24.2125C25.9788 25.2851 26.3021 26.5332 26.243 27.793C26.1689 29.3471 25.5183 30.8179 24.4181 31.9181C23.3179 33.0183 21.8471 33.6689 20.293 33.743Z" fill="#5A16E9"/>
<path d="M20 31.25C22.0711 31.25 23.75 29.5711 23.75 27.5C23.75 25.4289 22.0711 23.75 20 23.75C17.9289 23.75 16.25 25.4289 16.25 27.5C16.25 29.5711 17.9289 31.25 20 31.25Z" fill="#5A16E9"/>
</svg>
