<svg width="40" height="40" viewBox="0 0 40 40" fill="none" xmlns="http://www.w3.org/2000/svg">
<g clip-path="url(#clip0)">
<path d="M39.7375 11.6242C39.7375 8.10859 37.1516 5.28047 33.9563 5.28047C29.6282 5.07812 25.2141 5 20.7032 5H19.2969C14.7969 5 10.375 5.07812 6.04692 5.28125C2.85942 5.28125 0.273485 8.125 0.273485 11.6406C0.0781728 14.4211 -0.00463966 17.2023 4.78382e-05 19.9836C-0.00776466 22.7648 0.080777 25.5487 0.265673 28.3352C0.265673 31.8508 2.85161 34.7023 6.03911 34.7023C10.586 34.9133 15.25 35.007 19.9922 34.9992C24.7422 35.0148 29.3933 34.9159 33.9454 34.7023C37.1407 34.7023 39.7266 31.8508 39.7266 28.3352C39.9141 25.5461 40 22.7648 39.9922 19.9758C40.0099 17.1945 39.925 14.4107 39.7375 11.6242ZM16.1719 27.6477V12.2961L27.5 19.968L16.1719 27.6477Z" fill="#FBFBFB"/>
</g>
<defs>
<clipPath id="clip0">
<rect width="40" height="40" fill="white"/>
</clipPath>
</defs>
</svg>
